<?xml version="1.0" encoding="UTF-8"?><svg id="a" xmlns="http://www.w3.org/2000/svg" viewBox="0 0 74.29 44.01"><defs><style>.b,.c{fill:#faf1e0;stroke:#000;stroke-miterlimit:10;}.c{stroke-width:.75px;}</style></defs><polygon class="c" points="2.89 39.46 2.89 13.64 .5 13.45 .5 7.02 14.64 3.78 24.99 1.74 31.37 .38 43.17 1.01 58.25 2.08 67.61 2.53 73.38 2.76 73.38 5.59 73.38 9.75 71.19 10.62 71.19 10.62 71.39 31.72 45.71 43.62 2.89 39.46"/><polygon class="b" points=".5 14 26.98 16.69 42.72 17.72 46.7 17.72 59.64 14.48 66.44 12.55 71.2 11.28 73.77 10.26 73.37 3.26 46.7 10.65 .5 7.66 .5 14"/><polygon points="46.34 10.49 45.97 43.07 44.99 43.07 45.18 10.96 46.34 10.49"/></svg>