<?xml version="1.0" encoding="UTF-8"?><svg id="a" xmlns="http://www.w3.org/2000/svg" viewBox="0 0 250.05 71.18"><defs><style>.b{fill:#ffe0a9;}.c{fill:#1d1d1b;}</style></defs><g><path class="c" d="M.42,0H12.02l7.83,30.61V0h11V62.14h-11.6l-7.48-29.77v29.77H.42V0Z"/><path class="c" d="M47.25,0h27.65V9.91h-15.91V26.1h13.68v9.95h-13.68v16.19h15.91v9.91h-27.65V0Z"/><path class="c" d="M119.23,39.85l3.35,22.29h-11.85l-1.94-12.91h-8.64l-1.97,12.91h-11.81l3.35-22.18L96.87,0h15.24l7.12,39.85Zm-11.96-.56l-2.82-18.8-2.82,18.8h5.64Z"/><path class="c" d="M172.2,0V9.91h-18.51V62.14h-11.74V9.91h-18.74V0h48.99Z"/><path class="c" d="M181.76,62.14V0h11.74V52.23h15.91v9.91h-27.65Z"/><path class="c" d="M225.43,0l6.1,23.98L237.64,0h12.41l-12.38,35.34-.25,.63v26.17h-11.74v-26.13l-.28-.67L213.02,0h12.41Z"/></g><rect class="b" y="68.4" width="249.93" height="2.78"/></svg>