<?xml version="1.0" encoding="UTF-8"?><svg id="a" xmlns="http://www.w3.org/2000/svg" viewBox="0 0 57.14 69.36"><defs><style>.b{fill:#faf1e0;}.b,.c{stroke:#000;stroke-miterlimit:10;}.c{fill:none;}</style></defs><polygon class="b" points="13.01 .8 17.03 2.13 20.63 2.65 24.81 3.23 27.77 3.47 32.07 3.47 35.61 3.12 37.99 2.65 40.72 2.05 43.16 1.26 44.29 .87 43.39 3.67 42.69 5.15 42.24 5.84 40.49 6.31 37.29 6.83 34.27 7.24 31.14 7.24 28.24 7.24 25.33 7.24 22.55 7.24 19.88 7.06 16.15 6.47 14.19 3.99 13.01 .8"/><polygon class="b" points="9.14 1.5 11.88 8.16 14.15 11.04 17.16 13.71 19.7 15.42 22.44 16.86 24.97 17.41 28.88 17.59 33.76 17.19 37.03 15.97 39.43 14.67 41.55 13.02 43.27 11.52 44.73 9.84 45.66 8.43 46.57 6.62 47.51 4.25 48.61 1.99 44.29 .7 43.86 .72 41.48 1.73 35.61 3.04 29.7 3.39 24.81 3.16 20.63 2.58 17.03 2.06 14.4 1.11 13.01 .64 9.14 1.5"/><polygon class="b" points="26.2 7.37 26.2 9.94 26.2 12.27 26.2 12.89 28.57 12.89 30.52 12.89 31.12 12.89 31.14 7.36 26.2 7.37"/><polygon class="b" points="9.14 1.5 11.88 8.16 14.15 11.04 17.16 13.71 19.7 15.42 22.44 16.86 24.97 17.41 28.88 17.59 33.76 17.19 37.03 15.97 39.43 14.67 41.55 13.02 43.27 11.52 44.73 9.84 45.66 8.43 46.57 6.62 47.51 4.25 48.61 1.99 44.29 .7 43.86 .72 41.48 1.73 35.61 3.04 29.7 3.39 24.81 3.16 20.63 2.58 17.03 2.06 14.4 1.11 13.01 .64 9.14 1.5"/><polygon class="b" points="26.2 7.37 26.2 9.94 26.2 12.27 26.2 12.89 28.57 12.89 30.52 12.89 31.12 12.89 31.14 7.36 26.2 7.37"/><polygon class="b" points=".5 3.93 .5 68.86 56.64 68.86 56.64 4.37 44.29 .87 43.8 2.75 42.69 5.07 40.6 8.27 38.51 10.3 35.55 12.16 33.4 13.03 31.08 13.72 28.57 13.72 25.86 13.49 23.53 12.8 21.56 11.87 19.64 10.65 17.84 8.91 16.97 7.92 15.41 5.83 14.19 3.91 13.26 1.71 12.89 .67 10.18 1.24 5.07 2.52 1.41 3.45 .5 3.93"/><polygon class="b" points="9.14 1.5 11.88 8.16 14.15 11.04 17.16 13.71 19.7 15.42 22.44 16.86 24.97 17.41 28.88 17.59 33.76 17.19 37.03 15.97 39.43 14.67 41.55 13.02 43.27 11.52 44.73 9.84 45.66 8.43 46.57 6.62 47.51 4.25 48.61 1.99 44.29 .7 43.86 .72 41.48 1.73 35.61 3.04 29.7 3.39 24.81 3.16 20.63 2.58 17.03 2.06 14.4 1.11 13.01 .64 9.14 1.5"/><polygon class="b" points="26.2 7.37 26.2 9.94 26.2 12.27 26.2 12.89 28.57 12.89 30.52 12.89 31.12 12.89 31.14 7.36 26.2 7.37"/><polygon class="b" points=".5 3.93 .5 68.86 56.64 68.86 56.64 4.37 44.29 .87 43.8 2.75 42.69 5.07 40.6 8.27 38.51 10.3 35.55 12.16 33.4 13.03 31.08 13.72 28.57 13.72 25.86 13.49 23.53 12.8 21.56 11.87 19.64 10.65 17.84 8.91 16.97 7.92 15.41 5.83 14.19 3.91 13.26 1.71 12.89 .67 10.18 1.24 5.07 2.52 1.41 3.45 .5 3.93"/><polygon class="b" points="13.01 .8 17.03 2.13 20.63 2.65 24.81 3.23 27.77 3.47 32.07 3.47 35.61 3.12 37.99 2.65 40.72 2.05 43.16 1.26 44.29 .87 43.39 3.67 42.69 5.15 42.24 5.84 40.49 6.31 37.29 6.83 34.27 7.24 31.14 7.24 28.24 7.24 25.33 7.24 22.55 7.24 19.88 7.06 16.15 6.47 14.19 3.99 13.01 .8"/><polygon class="b" points="9.14 1.5 11.88 8.16 14.15 11.04 17.16 13.71 19.7 15.42 22.44 16.86 24.97 17.41 28.88 17.59 33.76 17.19 37.03 15.97 39.43 14.67 41.55 13.02 43.27 11.52 44.73 9.84 45.66 8.43 46.57 6.62 47.51 4.25 48.61 1.99 44.29 .7 43.86 .72 41.48 1.73 35.61 3.04 29.7 3.39 24.81 3.16 20.63 2.58 17.03 2.06 14.4 1.11 13.01 .64 9.14 1.5"/><polygon class="b" points="26.2 7.37 26.2 9.94 26.2 12.27 26.2 12.89 28.57 12.89 30.52 12.89 31.12 12.89 31.14 7.36 26.2 7.37"/><polygon class="b" points=".5 3.93 .5 68.86 56.64 68.86 56.64 4.37 44.29 .87 43.8 2.75 42.69 5.07 40.6 8.27 38.51 10.3 35.55 12.16 33.4 13.03 31.08 13.72 28.57 13.72 25.86 13.49 23.53 12.8 21.56 11.87 19.64 10.65 17.84 8.91 16.97 7.92 15.41 5.83 14.19 3.91 13.26 1.71 12.89 .67 10.18 1.24 5.07 2.52 1.41 3.45 .5 3.93"/><polygon class="b" points="13.01 .8 17.03 2.13 20.63 2.65 24.81 3.23 27.77 3.47 32.07 3.47 35.61 3.12 37.99 2.65 40.72 2.05 43.16 1.26 44.29 .87 43.39 3.67 42.69 5.15 42.24 5.84 40.49 6.31 37.29 6.83 34.27 7.24 31.14 7.24 28.24 7.24 25.33 7.24 22.55 7.24 19.88 7.06 16.15 6.47 14.19 3.99 13.01 .8"/><polygon class="b" points="9.14 1.5 11.88 8.16 14.15 11.04 17.16 13.71 19.7 15.42 22.44 16.86 24.97 17.41 28.88 17.59 33.76 17.19 37.03 15.97 39.43 14.67 41.55 13.02 43.27 11.52 44.73 9.84 45.66 8.43 46.57 6.62 47.51 4.25 48.61 1.99 44.29 .7 43.86 .72 41.48 1.73 35.61 3.04 29.7 3.39 24.81 3.16 20.63 2.58 17.03 2.06 14.4 1.11 13.01 .64 9.14 1.5"/><polygon class="b" points="26.2 7.37 26.2 9.94 26.2 12.27 26.2 12.89 28.57 12.89 30.52 12.89 31.12 12.89 31.14 7.36 26.2 7.37"/><polygon class="b" points=".5 3.93 .5 68.86 56.64 68.86 56.64 4.37 44.29 .87 43.8 2.75 42.69 5.07 40.6 8.27 38.51 10.3 35.55 12.16 33.4 13.03 31.08 13.72 28.57 13.72 25.86 13.49 23.53 12.8 21.56 11.87 19.64 10.65 17.84 8.91 16.97 7.92 15.41 5.83 14.19 3.91 13.26 1.71 12.89 .67 10.18 1.24 5.07 2.52 1.41 3.45 .5 3.93"/><polygon class="b" points="13.01 .8 17.03 2.13 20.63 2.65 24.81 3.23 27.77 3.47 32.07 3.47 35.61 3.12 37.99 2.65 40.72 2.05 43.16 1.26 44.29 .87 43.39 3.67 42.69 5.15 42.24 5.84 40.49 6.31 37.29 6.83 34.27 7.24 31.14 7.24 28.24 7.24 25.33 7.24 22.55 7.24 19.88 7.06 16.15 6.47 14.19 3.99 13.01 .8"/><polygon class="b" points=".5 3.93 .5 68.86 56.64 68.86 56.64 4.37 44.29 .87 43.8 2.75 42.69 5.07 40.6 8.27 38.51 10.3 35.55 12.16 33.4 13.03 31.08 13.72 28.57 13.72 25.86 13.49 23.53 12.8 21.56 11.87 19.64 10.65 17.84 8.91 16.97 7.92 15.41 5.83 14.19 3.91 13.26 1.71 12.89 .67 10.18 1.24 5.07 2.52 1.41 3.45 .5 3.93"/><polygon class="b" points="13.01 .8 17.03 2.13 20.63 2.65 24.81 3.23 27.77 3.47 32.07 3.47 35.61 3.12 37.99 2.65 40.72 2.05 43.16 1.26 44.29 .87 43.39 3.67 42.69 5.15 42.24 5.84 40.49 6.31 37.29 6.83 34.27 7.24 31.14 7.24 28.24 7.24 25.33 7.24 22.55 7.24 19.88 7.06 16.15 6.47 14.19 3.99 13.01 .8"/><polygon class="b" points="9.14 1.5 11.88 8.16 14.15 11.04 17.16 13.71 19.7 15.42 22.44 16.86 24.97 17.41 28.88 17.59 33.76 17.19 37.03 15.97 39.43 14.67 41.55 13.02 43.27 11.52 44.73 9.84 45.66 8.43 46.57 6.62 47.51 4.25 48.61 1.99 44.29 .7 43.86 .72 41.48 1.73 35.61 3.04 29.7 3.39 24.81 3.16 20.63 2.58 17.03 2.06 14.4 1.11 13.01 .64 9.14 1.5"/><polygon class="b" points="26.2 7.37 26.2 9.94 26.2 12.27 26.2 12.89 28.57 12.89 30.52 12.89 31.12 12.89 31.14 7.36 26.2 7.37"/><polygon class="b" points=".5 3.93 .5 68.86 56.64 68.86 56.64 4.37 44.29 .87 43.8 2.75 42.69 5.07 40.6 8.27 38.51 10.3 35.55 12.16 33.4 13.03 31.08 13.72 28.57 13.72 25.86 13.49 23.53 12.8 21.56 11.87 19.64 10.65 17.84 8.91 16.97 7.92 15.41 5.83 14.19 3.91 13.26 1.71 12.89 .67 10.18 1.24 5.07 2.52 1.41 3.45 .5 3.93"/><polygon class="b" points="13.01 .8 17.03 2.13 20.63 2.65 24.81 3.23 27.77 3.47 32.07 3.47 35.61 3.12 37.99 2.65 40.72 2.05 43.16 1.26 44.29 .87 43.39 3.67 42.69 5.15 42.24 5.84 40.49 6.31 37.29 6.83 34.27 7.24 31.14 7.24 28.24 7.24 25.33 7.24 22.55 7.24 19.88 7.06 16.15 6.47 14.19 3.99 13.01 .8"/><polygon class="b" points="9.14 1.5 11.88 8.16 14.15 11.04 17.16 13.71 19.7 15.42 22.44 16.86 24.97 17.41 28.88 17.59 33.76 17.19 37.03 15.97 39.43 14.67 41.55 13.02 43.27 11.52 44.73 9.84 45.66 8.43 46.57 6.62 47.51 4.25 48.61 1.99 44.29 .7 43.86 .72 41.48 1.73 35.61 3.04 29.7 3.39 24.81 3.16 20.63 2.58 17.03 2.06 14.4 1.11 13.01 .64 9.14 1.5"/><polygon class="b" points="26.2 7.37 26.2 9.94 26.2 12.27 26.2 12.89 28.57 12.89 30.52 12.89 31.12 12.89 31.14 7.36 26.2 7.37"/><polygon class="b" points=".5 3.93 .5 68.86 56.64 68.86 56.64 4.37 44.29 .87 43.8 2.75 42.69 5.07 40.6 8.27 38.51 10.3 35.55 12.16 33.4 13.03 31.08 13.72 28.57 13.72 25.86 13.49 23.53 12.8 21.56 11.87 19.64 10.65 17.84 8.91 16.97 7.92 15.41 5.83 14.19 3.91 13.26 1.71 12.89 .67 10.18 1.24 5.07 2.52 1.41 3.45 .5 3.93"/><polygon class="b" points="13.01 .8 17.03 2.13 20.63 2.65 24.81 3.23 27.77 3.47 32.07 3.47 35.61 3.12 37.99 2.65 40.72 2.05 43.16 1.26 44.29 .87 43.39 3.67 42.69 5.15 42.24 5.84 40.49 6.31 37.29 6.83 34.27 7.24 31.14 7.24 28.24 7.24 25.33 7.24 22.55 7.24 19.88 7.06 16.15 6.47 14.19 3.99 13.01 .8"/><polygon class="b" points="9.14 1.5 11.88 8.16 14.15 11.04 17.16 13.71 19.7 15.42 22.44 16.86 24.97 17.41 28.88 17.59 33.76 17.19 37.03 15.97 39.43 14.67 41.55 13.02 43.27 11.52 44.73 9.84 45.66 8.43 46.57 6.62 47.51 4.25 48.61 1.99 44.29 .7 43.86 .72 41.48 1.73 35.61 3.04 29.7 3.39 24.81 3.16 20.63 2.58 17.03 2.06 14.4 1.11 13.01 .64 9.14 1.5"/><polygon class="b" points="13.01 .8 17.03 2.13 20.63 2.65 24.81 3.23 27.77 3.47 32.07 3.47 35.61 3.12 37.99 2.65 40.72 2.05 43.16 1.26 44.29 .87 43.39 3.67 42.69 5.15 42.24 5.84 40.49 6.31 37.29 6.83 34.27 7.24 31.14 7.24 28.24 7.24 25.33 7.24 22.55 7.24 19.88 7.06 16.15 6.47 14.19 3.99 13.01 .8"/><polygon class="b" points="9.14 1.5 11.88 8.16 14.15 11.04 17.16 13.71 19.7 15.42 22.44 16.86 24.97 17.41 28.88 17.59 33.76 17.19 37.03 15.97 39.43 14.67 41.55 13.02 43.27 11.52 44.73 9.84 45.66 8.43 46.57 6.62 47.51 4.25 48.61 1.99 44.29 .7 43.86 .72 41.48 1.73 35.61 3.04 29.7 3.39 24.81 3.16 20.63 2.58 17.03 2.06 14.4 1.11 13.01 .64 9.14 1.5"/><polygon class="b" points="26.2 5.42 26.2 7.99 26.2 10.32 26.2 10.94 28.57 10.94 30.52 10.94 31.12 10.94 31.14 5.42 26.2 5.42"/><polygon class="b" points=".5 3.93 .5 68.86 56.64 68.86 56.64 4.37 44.29 .87 43.8 2.75 42.69 5.07 40.6 8.27 38.51 10.3 35.55 12.16 33.4 13.03 31.08 13.72 28.57 13.72 25.86 13.49 23.53 12.8 21.56 11.87 19.64 10.65 17.84 8.91 16.97 7.92 15.41 5.83 14.19 3.91 13.26 1.71 12.89 .67 10.18 1.24 5.07 2.52 1.41 3.45 .5 3.93"/><path class="b" d="M.5,3.93V68.86H56.64V4.23L44.29,.74l-.49,2.02-1.1,2.32-2.09,3.19-2.09,2.03-2.96,1.86-2.15,.87-2.32,.7h-2.51l-2.71-.23-2.32-.7-1.97-.93-1.92-1.22-1.8-1.74-.87-.99-1.57-2.09-1.22-1.92-.93-2.21-.37-1.04-2.71,.58-.99,.25-4.12,1.03-3.66,.93-.91,.48Z"/><path class="c" d="M9.19,1.49c2.84,10.44,19.08,22.91,32.42,9.56,2.4-2.4,4.37-5.45,6.4-9.12"/><path class="c" d="M13.01,.8c0-.07-.05-.13-.12-.13"/><path class="c" d="M44.29,.87c0-.07-.15-.13-.33-.13"/><path class="c" d="M13.01,.64s-.05,.03-.12,.03"/><path class="c" d="M43.95,.74s-.15,.03-.33,.03"/><path class="c" d="M13.61,2.63c.01-.12,7.86,3.05,17.14,2.77,4.66-.14,6.82-.81,12.84-2.19"/></svg>